Coordinates
version=1
nRows=32
nColumns=22
inDegrees=yes

Units are S.I. units (second, meters, Newtons, ...)
If the header above contains a line with 'inDegrees', this indicates whether rotational values are in degrees (yes) or radians (no).

endheader
time	pelvis_tilt	pelvis_list	pelvis_rotation	pelvis_tx	pelvis_ty	pelvis_tz	hip_flexion_r	hip_adduction_r	hip_rotation_r	knee_angle_r	ankle_angle_r	subtalar_angle_r	hip_flexion_l	hip_adduction_l	hip_rotation_l	knee_angle_l	ankle_angle_l	subtalar_angle_l	lumbar_extension	lumbar_bending	lumbar_rotation
      0.01000000	     -9.94346725	      0.60712961	    -19.06944370	     -1.33064547	      0.97834327	     -0.28616454	     17.99634049	      3.05656252	     -3.74026776	    -21.67953421	     18.92941889	     -6.20715088	     18.38712364	     -0.78438380	     -6.48715304	    -21.26077505	     19.76532137	     -4.05560191	      2.62061130	      3.17899801	      5.67343719
      0.02000000	     -9.89576324	      0.63256531	    -19.07459123	     -1.33090729	      0.97821435	     -0.28638528	     18.09912885	      3.01199242	     -3.70977254	    -21.90806257	     19.00578291	     -6.25244066	     18.45899852	     -0.74105798	     -6.47890878	    -21.43386919	     19.81164017	     -4.06597365	      2.53794672	      3.14634108	      5.70326593
      0.03000000	     -9.93106599	      0.73010017	    -19.08840995	     -1.33129308	      0.97788102	     -0.28663788	     18.36162941	      2.93423705	     -3.61320705	    -22.21968302	     19.09653070	     -6.36705025	     18.66040269	     -0.65070901	     -6.44560226	    -21.63210162	     19.81999011	     -4.09203677	      2.56917128	      3.06766372	      5.72862798
      0.04000000	     -9.94610064	      0.78835923	    -19.08354970	     -1.33170902	      0.97756009	     -0.28694275	     18.59504788	      2.88110931	     -3.55714978	    -22.53478570	     19.17129731	     -6.47909177	     18.86781355	     -0.58936291	     -6.39284431	    -21.89766849	     19.86047180	     -4.12913456	      2.55374983	      3.02487530	      5.76075415
      0.05000000	     -9.89077457	      0.80942234	    -19.09005453	     -1.33209637	      0.97735216	     -0.28723518	     18.74016189	      2.84081696	     -3.52175950	    -22.84305891	     19.25206019	     -6.54741504	     18.99404054	     -0.54295486	     -6.34763981	    -22.17370701	     19.91688377	     -4.15612581	      2.44022067	      3.00376677	      5.79253467
      0.06000000	     -9.95736710	      0.89032895	    -19.07885884	     -1.33258959	      0.97690362	     -0.28756699	     19.04611621	      2.79015501	     -3.42348506	    -23.17599299	     19.32987596	     -6.71988836	     19.29286025	     -0.46600139	     -6.23652983	    -22.48624318	     19.94067252	     -4.22864363	      2.48485651	      2.95796277	      5.81132285
      0.07000000	     -9.96115740	      0.90188010	    -19.06097272	     -1.33302693	      0.97658500	     -0.28790655	     19.24094538	      2.77826217	     -3.38001388	    -23.47038003	     19.40144340	     -6.84030216	     19.51335264	     -0.43538122	     -6.12635665	    -22.81872651	     19.99627110	     -4.29253229	      2.42951448	      2.97141674	      5.82857642
      0.08000000	     -9.89447845	      0.88552663	    -19.05654470	     -1.33339505	      0.97640656	     -0.28821467	     19.33003879	      2.77080379	     -3.34261432	    -23.72634262	     19.48936221	     -6.89304394	     19.63985572	     -0.41147069	     -6.03921213	    -23.13645831	     20.04730304	     -4.32352979	      2.28445412	      2.99258859	      5.86304065
      0.09000000	     -9.94203169	      0.88667849	    -19.01667159	     -1.33379750	      0.97604143	     -0.28858207	     19.52656654	      2.77898186	     -3.30457118	    -23.95509265	     19.54945650	     -7.02905881	     19.91540461	     -0.39152988	     -5.87608246	    -23.49375477	     20.10160547	     -4.42150340	      2.27896373	      3.03632765	      5.86251064
      0.10000000	     -9.87937934	      0.85627506	    -19.00929554	     -1.33407426	      0.97589883	     -0.28888443	     19.57500775	      2.78373973	     -3.27074110	    -24.15048143	     19.64029129	     -7.07148505	     20.02688096	     -0.37793777	     -5.78625233	    -23.79321771	     20.13937386	     -4.45005702	      2.14176134	      3.07972205	      5.90726002
      0.11000000	     -9.89949335	      0.82195409	    -18.96559786	     -1.33433300	      0.97563703	     -0.28922223	     19.67850987	      2.81381196	     -3.25304320	    -24.29897125	     19.69569577	     -7.18126934	     20.23294845	     -0.38238225	     -5.63770393	    -24.11101698	     20.20340591	     -4.54006686	      2.10506895	      3.15499915	      5.91566774
      0.12000000	     -9.84781195	      0.79138791	    -18.95830691	     -1.33449533	      0.97551324	     -0.28949759	     19.70268645	      2.82185559	     -3.21814647	    -24.44458244	     19.78859306	     -7.22172027	     20.31766877	     -0.37151756	     -5.55736711	    -24.35421785	     20.24092037	     -4.56461303	      1.99403196	      3.20394090	      5.97085748
      0.13000000	     -9.82537297	      0.75620563	    -18.93719849	     -1.33459428	      0.97536015	     -0.28975907	     19.72742903	      2.84330898	     -3.19000407	    -24.54622032	     19.87092738	     -7.29191573	     20.41900482	     -0.37253842	     -5.46820451	    -24.58352020	     20.31210406	     -4.61173473	      1.92565957	      3.26478448	      6.01535589
      0.14000000	     -9.79516973	      0.73019633	    -18.92824159	     -1.33466772	      0.97523606	     -0.29001196	     19.75517490	      2.85523265	     -3.14830454	    -24.66610981	     19.93740519	     -7.34271292	     20.47828037	     -0.36312427	     -5.39169675	    -24.74656083	     20.35568502	     -4.63879112	      1.84850008	      3.31750469	      6.06806152
      0.15000000	     -9.77333542	      0.71248934	    -18.92233727	     -1.33467742	      0.97510754	     -0.29022524	     19.78086077	      2.86348516	     -3.10733516	    -24.76776371	     20.00889161	     -7.40679498	     20.52942443	     -0.35239555	     -5.32916323	    -24.88602853	     20.41565415	     -4.67122057	      1.79506675	      3.35999732	      6.11769229
      0.16000000	     -9.75719109	      0.70646900	    -18.91635092	     -1.33466027	      0.97498255	     -0.29043118	     19.81473882	      2.86197687	     -3.06345959	    -24.86830119	     20.07358985	     -7.47788017	     20.56849681	     -0.33324322	     -5.28063815	    -24.98781406	     20.46967308	     -4.70413767	      1.75237070	      3.39005011	      6.16603943
      0.17000000	     -9.73494347	      0.70394685	    -18.90746723	     -1.33462206	      0.97489602	     -0.29062803	     19.83825594	      2.85500383	     -3.01381810	    -24.95958450	     20.09554810	     -7.50210709	     20.58648152	     -0.30811837	     -5.23373110	    -25.06225112	     20.48679081	     -4.71330601	      1.70055408	      3.41189962	      6.19647376
      0.18000000	     -9.72503210	      0.72502572	    -18.90395723	     -1.33452800	      0.97477099	     -0.29077747	     19.88818735	      2.82875596	     -2.97328332	    -25.07094687	     20.18917583	     -7.58054740	     20.60414738	     -0.26957876	     -5.21536882	    -25.10818225	     20.55356777	     -4.74877514	      1.68254133	      3.40408673	      6.23895221
      0.19000000	     -9.71357217	      0.72956363	    -18.90284092	     -1.33442992	      0.97470000	     -0.29093881	     19.92334900	      2.81851588	     -2.92658731	    -25.16321578	     20.20214013	     -7.60252304	     20.60483304	     -0.24489695	     -5.18861113	    -25.13608910	     20.56017110	     -4.75800726	      1.64507300	      3.42379787	      6.23648217
      0.20000000	     -9.71000986	      0.78814254	    -18.90093390	     -1.33428302	      0.97457921	     -0.29106860	     19.99060453	      2.75481987	     -2.88640715	    -25.27506240	     20.28561039	     -7.68019971	     20.61857043	     -0.17024062	     -5.18414565	    -25.14673559	     20.60141098	     -4.80319998	      1.64516156	      3.37374422	      6.25998630
      0.21000000	     -9.70816871	      0.79422645	    -18.89898626	     -1.33410165	      0.97452491	     -0.29117289	     20.02132855	      2.74612970	     -2.84910791	    -25.35017523	     20.29077723	     -7.69400223	     20.61099154	     -0.15052914	     -5.17291966	    -25.15114976	     20.60049111	     -4.81171140	      1.62276866	      3.38934477	      6.23613128
      0.22000000	     -9.70876513	      0.85854327	    -18.89341462	     -1.33388747	      0.97442470	     -0.29127706	     20.08081591	      2.67425869	     -2.82045213	    -25.44262949	     20.35099967	     -7.74215337	     20.62001414	     -0.07062165	     -5.16818293	    -25.14960515	     20.62262731	     -4.85386176	      1.62465108	      3.33323534	      6.22537331
      0.23000000	     -9.71401929	      0.86781972	    -18.89569852	     -1.33362023	      0.97437794	     -0.29133138	     20.10248978	      2.66341676	     -2.79513256	    -25.49532076	     20.35641908	     -7.75021341	     20.61023352	     -0.05277901	     -5.16583971	    -25.14685543	     20.62309069	     -4.86207251	      1.61080893	      3.34518101	      6.19301416
      0.24000000	     -9.71580783	      0.92392470	    -18.88885531	     -1.33330949	      0.97430422	     -0.29139475	     20.13664491	      2.59718524	     -2.78422480	    -25.55467424	     20.40316180	     -7.77486332	     20.60911731	      0.01779509	     -5.16371032	    -25.14075119	     20.64059324	     -4.89912981	      1.60991339	      3.29759071	      6.16186460
      0.25000000	     -9.72499047	      0.93489718	    -18.89704063	     -1.33297147	      0.97426345	     -0.29140395	     20.14519036	      2.58527242	     -2.76804353	    -25.58270012	     20.40687230	     -7.77785080	     20.59913619	      0.03345611	     -5.16519913	    -25.13952684	     20.64438119	     -4.90632804	      1.59469774	      3.30667874	      6.12849173
      0.26000000	     -9.72811917	      0.95907939	    -18.89817478	     -1.33259350	      0.97423044	     -0.29140911	     20.14136384	      2.55464669	     -2.75800675	    -25.59669118	     20.42129431	     -7.78040614	     20.58687834	      0.06557609	     -5.17215768	    -25.13945269	     20.66537622	     -4.92039075	      1.57398488	      3.29487925	      6.08927171
      0.27000000	     -9.74550597	      0.96869637	    -18.91384663	     -1.33218578	      0.97419553	     -0.29137635	     20.13705133	      2.54487250	     -2.76059634	    -25.59329065	     20.42352796	     -7.78046575	     20.58153136	      0.07563115	     -5.17179955	    -25.14289374	     20.66744369	     -4.92184532	      1.56167750	      3.30477089	      6.08398121
      0.28000000	     -9.68648557	      0.99097244	    -18.92907398	     -1.33167506	      0.97428024	     -0.29132259	     20.04981860	      2.48996897	     -2.78007085	    -25.58640843	     20.46872001	     -7.76838975	     20.47256693	      0.12745372	     -5.18168562	    -25.09847184	     20.70317458	     -4.96857339	      1.46934552	      3.26841517	      6.05876817
      0.29000000	     -9.70238566	      0.99486529	    -18.94990466	     -1.33118359	      0.97428671	     -0.29121802	     20.00913409	      2.48617620	     -2.79456860	    -25.53059101	     20.46208950	     -7.75992995	     20.45003766	      0.12531458	     -5.20624359	    -25.08585782	     20.70451412	     -4.97697222	      1.44969668	      3.27264277	      6.06539105
      0.30000000	     -9.63188175	      0.95822118	    -19.01232632	     -1.33061191	      0.97445537	     -0.29103867	     19.85842620	      2.50357565	     -2.78490089	    -25.46831800	     20.44563568	     -7.72228779	     20.30055776	      0.09944683	     -5.26776389	    -25.04512967	     20.74657926	     -5.00601139	      1.31491105	      3.29649771	      6.10432785
      0.31000000	     -9.65724287	      0.96922308	    -19.04249025	     -1.33007919	      0.97445166	     -0.29090586	     19.82513139	      2.49271369	     -2.81737939	    -25.40922718	     20.45063432	     -7.71630146	     20.28402354	      0.10035887	     -5.28878887	    -25.02928827	     20.75059672	     -5.00792855	      1.30152487	      3.29257346	      6.12908829
      0.32000000	     -9.59172139	      0.94072484	    -19.13775651	     -1.32948747	      0.97462786	     -0.29063763	     19.67190239	      2.51378173	     -2.78628988	    -25.32827545	     20.43365733	     -7.66769644	     20.13468592	      0.06483273	     -5.39600605	    -24.98630517	     20.78505733	     -5.01780490	      1.16646551	      3.30082397	      6.21727881
